<mxfile host="app.diagrams.net" modified="2024-01-11T06:58:34.166Z" agent="Mozilla/5.0 (Macintosh; Intel Mac OS X 10_15_7) AppleWebKit/537.36 (KHTML, like Gecko) Chrome/105.0.0.0 Safari/537.36" etag="KqZTorHpDUfKrbyqn68R" version="22.1.18" type="github">
  <diagram id="C5RBs43oDa-KdzZeNtuy" name="Page-1">
    <mxGraphModel dx="835" dy="460" grid="1" gridSize="10" guides="1" tooltips="1" connect="1" arrows="1" fold="1" page="1" pageScale="1" pageWidth="827" pageHeight="1169" math="0" shadow="0">
      <root>
        <mxCell id="WIyWlLk6GJQsqaUBKTNV-0" />
        <mxCell id="WIyWlLk6GJQsqaUBKTNV-1" parent="WIyWlLk6GJQsqaUBKTNV-0" />
        <mxCell id="WIyWlLk6GJQsqaUBKTNV-2" value="" style="rounded=0;html=1;jettySize=auto;orthogonalLoop=1;fontSize=11;endArrow=classic;endFill=1;endSize=8;strokeWidth=1;shadow=0;labelBackgroundColor=none;edgeStyle=orthogonalEdgeStyle;" parent="WIyWlLk6GJQsqaUBKTNV-1" source="WIyWlLk6GJQsqaUBKTNV-3" target="WIyWlLk6GJQsqaUBKTNV-12" edge="1">
          <mxGeometry relative="1" as="geometry">
            <mxPoint x="530" y="170" as="targetPoint" />
          </mxGeometry>
        </mxCell>
        <mxCell id="WIyWlLk6GJQsqaUBKTNV-3" value="获取删除的车道组" style="rounded=1;whiteSpace=wrap;html=1;fontSize=12;glass=0;strokeWidth=1;shadow=0;" parent="WIyWlLk6GJQsqaUBKTNV-1" vertex="1">
          <mxGeometry x="470" y="80" width="120" height="40" as="geometry" />
        </mxCell>
        <mxCell id="BNgib6uN8KGPn1lzbDXx-2" style="edgeStyle=orthogonalEdgeStyle;rounded=0;orthogonalLoop=1;jettySize=auto;html=1;exitX=0.5;exitY=1;exitDx=0;exitDy=0;entryX=0.502;entryY=-0.047;entryDx=0;entryDy=0;entryPerimeter=0;" parent="WIyWlLk6GJQsqaUBKTNV-1" source="WIyWlLk6GJQsqaUBKTNV-12" target="BNgib6uN8KGPn1lzbDXx-3" edge="1">
          <mxGeometry relative="1" as="geometry">
            <mxPoint x="580" y="360" as="sourcePoint" />
            <mxPoint x="580" y="439.9999999999999" as="targetPoint" />
          </mxGeometry>
        </mxCell>
        <mxCell id="WIyWlLk6GJQsqaUBKTNV-12" value="提取该删除车道组&lt;br&gt;作为一条情报" style="rounded=1;whiteSpace=wrap;html=1;fontSize=12;glass=0;strokeWidth=1;shadow=0;" parent="WIyWlLk6GJQsqaUBKTNV-1" vertex="1">
          <mxGeometry x="470" y="160" width="120" height="40" as="geometry" />
        </mxCell>
        <mxCell id="BNgib6uN8KGPn1lzbDXx-4" style="edgeStyle=orthogonalEdgeStyle;rounded=0;orthogonalLoop=1;jettySize=auto;html=1;exitX=0.5;exitY=1;exitDx=0;exitDy=0;entryX=0.5;entryY=0;entryDx=0;entryDy=0;" parent="WIyWlLk6GJQsqaUBKTNV-1" source="BNgib6uN8KGPn1lzbDXx-3" edge="1" target="BNgib6uN8KGPn1lzbDXx-5">
          <mxGeometry relative="1" as="geometry">
            <mxPoint x="520" y="520" as="targetPoint" />
          </mxGeometry>
        </mxCell>
        <mxCell id="4w60epp1YGAYbXjB0SkR-3" value="Y" style="edgeLabel;html=1;align=center;verticalAlign=middle;resizable=0;points=[];" vertex="1" connectable="0" parent="BNgib6uN8KGPn1lzbDXx-4">
          <mxGeometry x="-0.0882" relative="1" as="geometry">
            <mxPoint as="offset" />
          </mxGeometry>
        </mxCell>
        <mxCell id="BNgib6uN8KGPn1lzbDXx-3" value="删除车道组的车道上&lt;br&gt;存在人行横道-车道关系" style="rhombus;whiteSpace=wrap;html=1;" parent="WIyWlLk6GJQsqaUBKTNV-1" vertex="1">
          <mxGeometry x="445" y="250" width="170" height="80" as="geometry" />
        </mxCell>
        <mxCell id="4w60epp1YGAYbXjB0SkR-9" style="edgeStyle=orthogonalEdgeStyle;rounded=0;orthogonalLoop=1;jettySize=auto;html=1;exitX=0.5;exitY=1;exitDx=0;exitDy=0;entryX=0.5;entryY=0;entryDx=0;entryDy=0;" edge="1" parent="WIyWlLk6GJQsqaUBKTNV-1" source="BNgib6uN8KGPn1lzbDXx-5" target="4w60epp1YGAYbXjB0SkR-8">
          <mxGeometry relative="1" as="geometry" />
        </mxCell>
        <mxCell id="BNgib6uN8KGPn1lzbDXx-5" value="从人行横道-车道关系&lt;br&gt;获取人行横道" style="rounded=1;whiteSpace=wrap;html=1;fontSize=12;glass=0;strokeWidth=1;shadow=0;" parent="WIyWlLk6GJQsqaUBKTNV-1" vertex="1">
          <mxGeometry x="470" y="380" width="120" height="40" as="geometry" />
        </mxCell>
        <mxCell id="4w60epp1YGAYbXjB0SkR-16" style="edgeStyle=orthogonalEdgeStyle;rounded=0;orthogonalLoop=1;jettySize=auto;html=1;exitX=0.5;exitY=1;exitDx=0;exitDy=0;entryX=0.5;entryY=0;entryDx=0;entryDy=0;" edge="1" parent="WIyWlLk6GJQsqaUBKTNV-1" source="BNgib6uN8KGPn1lzbDXx-6" target="4w60epp1YGAYbXjB0SkR-15">
          <mxGeometry relative="1" as="geometry" />
        </mxCell>
        <mxCell id="BNgib6uN8KGPn1lzbDXx-6" value="用人行横道&lt;br&gt;靠近原来车道的长边&lt;br&gt;生成 6 米 buffer 区&lt;br&gt;查找区域内新车道组&lt;br&gt;【复用人行横道关系自动化路口相关查找逻辑】" style="rounded=1;whiteSpace=wrap;html=1;fontSize=12;glass=0;strokeWidth=1;shadow=0;fillColor=#ffe6cc;strokeColor=#d79b00;" parent="WIyWlLk6GJQsqaUBKTNV-1" vertex="1">
          <mxGeometry x="289" y="567.5" width="156" height="97.5" as="geometry" />
        </mxCell>
        <mxCell id="4w60epp1YGAYbXjB0SkR-47" style="edgeStyle=orthogonalEdgeStyle;rounded=0;orthogonalLoop=1;jettySize=auto;html=1;exitX=0.5;exitY=1;exitDx=0;exitDy=0;entryX=0.5;entryY=0;entryDx=0;entryDy=0;" edge="1" parent="WIyWlLk6GJQsqaUBKTNV-1" source="BNgib6uN8KGPn1lzbDXx-8" target="4w60epp1YGAYbXjB0SkR-1">
          <mxGeometry relative="1" as="geometry" />
        </mxCell>
        <mxCell id="BNgib6uN8KGPn1lzbDXx-8" value="" style="rounded=1;whiteSpace=wrap;html=1;fontSize=12;glass=0;strokeWidth=1;shadow=0;align=left;fillColor=#fff2cc;strokeColor=#d6b656;" parent="WIyWlLk6GJQsqaUBKTNV-1" vertex="1">
          <mxGeometry x="70" y="250" width="140" height="70" as="geometry" />
        </mxCell>
        <mxCell id="4w60epp1YGAYbXjB0SkR-0" value="①：&lt;br style=&quot;border-color: var(--border-color);&quot;&gt;获取删除车道组中存在关系丢失的车道&lt;br&gt;" style="text;html=1;strokeColor=none;fillColor=none;align=left;verticalAlign=top;whiteSpace=wrap;rounded=0;" vertex="1" parent="WIyWlLk6GJQsqaUBKTNV-1">
          <mxGeometry x="85" y="257.5" width="110" height="55" as="geometry" />
        </mxCell>
        <mxCell id="4w60epp1YGAYbXjB0SkR-48" style="edgeStyle=orthogonalEdgeStyle;rounded=0;orthogonalLoop=1;jettySize=auto;html=1;exitX=0.5;exitY=1;exitDx=0;exitDy=0;entryX=0.5;entryY=0;entryDx=0;entryDy=0;" edge="1" parent="WIyWlLk6GJQsqaUBKTNV-1" source="4w60epp1YGAYbXjB0SkR-1" target="4w60epp1YGAYbXjB0SkR-18">
          <mxGeometry relative="1" as="geometry" />
        </mxCell>
        <mxCell id="4w60epp1YGAYbXjB0SkR-1" value="" style="rounded=1;whiteSpace=wrap;html=1;fontSize=12;glass=0;strokeWidth=1;shadow=0;align=left;fillColor=#fff2cc;strokeColor=#d6b656;" vertex="1" parent="WIyWlLk6GJQsqaUBKTNV-1">
          <mxGeometry x="70" y="560" width="140" height="90" as="geometry" />
        </mxCell>
        <mxCell id="4w60epp1YGAYbXjB0SkR-2" value="②：&lt;br style=&quot;border-color: var(--border-color);&quot;&gt;通过丢失关系中的人行横道查找附近新车道组" style="text;html=1;strokeColor=none;fillColor=none;align=left;verticalAlign=top;whiteSpace=wrap;rounded=0;" vertex="1" parent="WIyWlLk6GJQsqaUBKTNV-1">
          <mxGeometry x="85" y="567.5" width="110" height="55" as="geometry" />
        </mxCell>
        <mxCell id="4w60epp1YGAYbXjB0SkR-4" style="edgeStyle=orthogonalEdgeStyle;rounded=0;orthogonalLoop=1;jettySize=auto;html=1;exitX=1;exitY=0.5;exitDx=0;exitDy=0;entryX=0;entryY=0.5;entryDx=0;entryDy=0;" edge="1" parent="WIyWlLk6GJQsqaUBKTNV-1" source="BNgib6uN8KGPn1lzbDXx-3" target="4w60epp1YGAYbXjB0SkR-5">
          <mxGeometry relative="1" as="geometry">
            <mxPoint x="540" y="210" as="sourcePoint" />
            <mxPoint x="680" y="290" as="targetPoint" />
          </mxGeometry>
        </mxCell>
        <mxCell id="4w60epp1YGAYbXjB0SkR-5" value="跳过该车道组" style="rounded=1;whiteSpace=wrap;html=1;fontSize=12;glass=0;strokeWidth=1;shadow=0;" vertex="1" parent="WIyWlLk6GJQsqaUBKTNV-1">
          <mxGeometry x="670" y="270" width="120" height="40" as="geometry" />
        </mxCell>
        <mxCell id="4w60epp1YGAYbXjB0SkR-10" style="edgeStyle=orthogonalEdgeStyle;rounded=0;orthogonalLoop=1;jettySize=auto;html=1;entryX=0.5;entryY=0;entryDx=0;entryDy=0;exitX=0;exitY=0.5;exitDx=0;exitDy=0;" edge="1" parent="WIyWlLk6GJQsqaUBKTNV-1" source="4w60epp1YGAYbXjB0SkR-8" target="BNgib6uN8KGPn1lzbDXx-6">
          <mxGeometry relative="1" as="geometry">
            <mxPoint x="460" y="550" as="sourcePoint" />
          </mxGeometry>
        </mxCell>
        <mxCell id="4w60epp1YGAYbXjB0SkR-11" value="路口" style="edgeLabel;html=1;align=center;verticalAlign=middle;resizable=0;points=[];" vertex="1" connectable="0" parent="4w60epp1YGAYbXjB0SkR-10">
          <mxGeometry x="-0.268" y="-1" relative="1" as="geometry">
            <mxPoint x="-24" y="1" as="offset" />
          </mxGeometry>
        </mxCell>
        <mxCell id="4w60epp1YGAYbXjB0SkR-42" style="edgeStyle=orthogonalEdgeStyle;rounded=0;orthogonalLoop=1;jettySize=auto;html=1;exitX=1;exitY=0.5;exitDx=0;exitDy=0;entryX=0.5;entryY=0;entryDx=0;entryDy=0;" edge="1" parent="WIyWlLk6GJQsqaUBKTNV-1" source="4w60epp1YGAYbXjB0SkR-8" target="4w60epp1YGAYbXjB0SkR-13">
          <mxGeometry relative="1" as="geometry" />
        </mxCell>
        <mxCell id="4w60epp1YGAYbXjB0SkR-43" value="路段中" style="edgeLabel;html=1;align=center;verticalAlign=middle;resizable=0;points=[];" vertex="1" connectable="0" parent="4w60epp1YGAYbXjB0SkR-42">
          <mxGeometry x="0.0932" y="1" relative="1" as="geometry">
            <mxPoint as="offset" />
          </mxGeometry>
        </mxCell>
        <mxCell id="4w60epp1YGAYbXjB0SkR-8" value="人行横道&lt;br&gt;位于路口OR位于路段中" style="rhombus;whiteSpace=wrap;html=1;" vertex="1" parent="WIyWlLk6GJQsqaUBKTNV-1">
          <mxGeometry x="445" y="460" width="170" height="80" as="geometry" />
        </mxCell>
        <mxCell id="4w60epp1YGAYbXjB0SkR-17" style="edgeStyle=orthogonalEdgeStyle;rounded=0;orthogonalLoop=1;jettySize=auto;html=1;exitX=0.5;exitY=1;exitDx=0;exitDy=0;entryX=0.5;entryY=0;entryDx=0;entryDy=0;" edge="1" parent="WIyWlLk6GJQsqaUBKTNV-1" source="4w60epp1YGAYbXjB0SkR-13" target="4w60epp1YGAYbXjB0SkR-15">
          <mxGeometry relative="1" as="geometry" />
        </mxCell>
        <mxCell id="4w60epp1YGAYbXjB0SkR-13" value="用人行横道&lt;br&gt;查找压盖的新车道组&lt;br&gt;【复用人行横道关系自动化路段中相关查找逻辑】" style="rounded=1;whiteSpace=wrap;html=1;fontSize=12;glass=0;strokeWidth=1;shadow=0;fillColor=#ffe6cc;strokeColor=#d79b00;" vertex="1" parent="WIyWlLk6GJQsqaUBKTNV-1">
          <mxGeometry x="640" y="567.5" width="140" height="97.5" as="geometry" />
        </mxCell>
        <mxCell id="4w60epp1YGAYbXjB0SkR-21" style="edgeStyle=orthogonalEdgeStyle;rounded=0;orthogonalLoop=1;jettySize=auto;html=1;exitX=1;exitY=0.5;exitDx=0;exitDy=0;entryX=0;entryY=0.5;entryDx=0;entryDy=0;" edge="1" parent="WIyWlLk6GJQsqaUBKTNV-1" source="4w60epp1YGAYbXjB0SkR-15" target="4w60epp1YGAYbXjB0SkR-20">
          <mxGeometry relative="1" as="geometry" />
        </mxCell>
        <mxCell id="4w60epp1YGAYbXjB0SkR-22" value="N" style="edgeLabel;html=1;align=center;verticalAlign=middle;resizable=0;points=[];" vertex="1" connectable="0" parent="4w60epp1YGAYbXjB0SkR-21">
          <mxGeometry x="-0.0802" y="2" relative="1" as="geometry">
            <mxPoint as="offset" />
          </mxGeometry>
        </mxCell>
        <mxCell id="4w60epp1YGAYbXjB0SkR-25" style="edgeStyle=orthogonalEdgeStyle;rounded=0;orthogonalLoop=1;jettySize=auto;html=1;exitX=0.5;exitY=1;exitDx=0;exitDy=0;entryX=0.5;entryY=0;entryDx=0;entryDy=0;" edge="1" parent="WIyWlLk6GJQsqaUBKTNV-1" source="4w60epp1YGAYbXjB0SkR-15" target="4w60epp1YGAYbXjB0SkR-24">
          <mxGeometry relative="1" as="geometry" />
        </mxCell>
        <mxCell id="4w60epp1YGAYbXjB0SkR-15" value="是否找到符合的新车道组" style="rhombus;whiteSpace=wrap;html=1;" vertex="1" parent="WIyWlLk6GJQsqaUBKTNV-1">
          <mxGeometry x="445" y="750" width="170" height="80" as="geometry" />
        </mxCell>
        <mxCell id="4w60epp1YGAYbXjB0SkR-49" style="edgeStyle=orthogonalEdgeStyle;rounded=0;orthogonalLoop=1;jettySize=auto;html=1;exitX=0.5;exitY=1;exitDx=0;exitDy=0;entryX=0.5;entryY=0;entryDx=0;entryDy=0;" edge="1" parent="WIyWlLk6GJQsqaUBKTNV-1" source="4w60epp1YGAYbXjB0SkR-18" target="4w60epp1YGAYbXjB0SkR-40">
          <mxGeometry relative="1" as="geometry" />
        </mxCell>
        <mxCell id="4w60epp1YGAYbXjB0SkR-18" value="" style="rounded=1;whiteSpace=wrap;html=1;fontSize=12;glass=0;strokeWidth=1;shadow=0;align=left;fillColor=#fff2cc;strokeColor=#d6b656;" vertex="1" parent="WIyWlLk6GJQsqaUBKTNV-1">
          <mxGeometry x="70" y="900" width="140" height="90" as="geometry" />
        </mxCell>
        <mxCell id="4w60epp1YGAYbXjB0SkR-19" value="③：&lt;br style=&quot;border-color: var(--border-color);&quot;&gt;对比新旧车道组的&lt;br&gt;形态差异&lt;br&gt;（横向、纵向）" style="text;html=1;strokeColor=none;fillColor=none;align=left;verticalAlign=top;whiteSpace=wrap;rounded=0;" vertex="1" parent="WIyWlLk6GJQsqaUBKTNV-1">
          <mxGeometry x="85" y="907.5" width="110" height="72.5" as="geometry" />
        </mxCell>
        <mxCell id="4w60epp1YGAYbXjB0SkR-20" value="发送log上报" style="rounded=1;whiteSpace=wrap;html=1;fontSize=12;glass=0;strokeWidth=1;shadow=0;" vertex="1" parent="WIyWlLk6GJQsqaUBKTNV-1">
          <mxGeometry x="670" y="770" width="120" height="40" as="geometry" />
        </mxCell>
        <mxCell id="4w60epp1YGAYbXjB0SkR-27" value="差异小" style="edgeStyle=orthogonalEdgeStyle;rounded=0;orthogonalLoop=1;jettySize=auto;html=1;exitX=0.5;exitY=1;exitDx=0;exitDy=0;entryX=0.5;entryY=0;entryDx=0;entryDy=0;" edge="1" parent="WIyWlLk6GJQsqaUBKTNV-1" source="4w60epp1YGAYbXjB0SkR-24" target="4w60epp1YGAYbXjB0SkR-26">
          <mxGeometry relative="1" as="geometry" />
        </mxCell>
        <mxCell id="4w60epp1YGAYbXjB0SkR-28" style="edgeStyle=orthogonalEdgeStyle;rounded=0;orthogonalLoop=1;jettySize=auto;html=1;exitX=1;exitY=0.5;exitDx=0;exitDy=0;" edge="1" parent="WIyWlLk6GJQsqaUBKTNV-1" source="4w60epp1YGAYbXjB0SkR-24">
          <mxGeometry relative="1" as="geometry">
            <mxPoint x="590.2941176470588" y="890" as="targetPoint" />
          </mxGeometry>
        </mxCell>
        <mxCell id="4w60epp1YGAYbXjB0SkR-30" style="edgeStyle=orthogonalEdgeStyle;rounded=0;orthogonalLoop=1;jettySize=auto;html=1;exitX=1;exitY=0.5;exitDx=0;exitDy=0;entryX=0;entryY=0.5;entryDx=0;entryDy=0;" edge="1" parent="WIyWlLk6GJQsqaUBKTNV-1" source="4w60epp1YGAYbXjB0SkR-24" target="4w60epp1YGAYbXjB0SkR-29">
          <mxGeometry relative="1" as="geometry" />
        </mxCell>
        <mxCell id="4w60epp1YGAYbXjB0SkR-31" value="差异大" style="edgeLabel;html=1;align=center;verticalAlign=middle;resizable=0;points=[];" vertex="1" connectable="0" parent="4w60epp1YGAYbXjB0SkR-30">
          <mxGeometry x="-0.0809" y="-2" relative="1" as="geometry">
            <mxPoint as="offset" />
          </mxGeometry>
        </mxCell>
        <mxCell id="4w60epp1YGAYbXjB0SkR-24" value="对比纵向特征差异" style="rounded=1;whiteSpace=wrap;html=1;fontSize=12;glass=0;strokeWidth=1;shadow=0;fillColor=#ffe6cc;strokeColor=#d79b00;" vertex="1" parent="WIyWlLk6GJQsqaUBKTNV-1">
          <mxGeometry x="470" y="870" width="120" height="40" as="geometry" />
        </mxCell>
        <mxCell id="4w60epp1YGAYbXjB0SkR-33" style="edgeStyle=orthogonalEdgeStyle;rounded=0;orthogonalLoop=1;jettySize=auto;html=1;exitX=1;exitY=0.5;exitDx=0;exitDy=0;entryX=0;entryY=0.5;entryDx=0;entryDy=0;" edge="1" parent="WIyWlLk6GJQsqaUBKTNV-1" source="4w60epp1YGAYbXjB0SkR-26" target="4w60epp1YGAYbXjB0SkR-32">
          <mxGeometry relative="1" as="geometry" />
        </mxCell>
        <mxCell id="4w60epp1YGAYbXjB0SkR-34" value="差异大" style="edgeLabel;html=1;align=center;verticalAlign=middle;resizable=0;points=[];" vertex="1" connectable="0" parent="4w60epp1YGAYbXjB0SkR-33">
          <mxGeometry x="-0.2279" y="1" relative="1" as="geometry">
            <mxPoint x="9" y="1" as="offset" />
          </mxGeometry>
        </mxCell>
        <mxCell id="4w60epp1YGAYbXjB0SkR-36" style="edgeStyle=orthogonalEdgeStyle;rounded=0;orthogonalLoop=1;jettySize=auto;html=1;exitX=0.5;exitY=1;exitDx=0;exitDy=0;entryX=0.5;entryY=0;entryDx=0;entryDy=0;" edge="1" parent="WIyWlLk6GJQsqaUBKTNV-1" source="4w60epp1YGAYbXjB0SkR-26" target="4w60epp1YGAYbXjB0SkR-35">
          <mxGeometry relative="1" as="geometry" />
        </mxCell>
        <mxCell id="4w60epp1YGAYbXjB0SkR-37" value="差异小" style="edgeLabel;html=1;align=center;verticalAlign=middle;resizable=0;points=[];" vertex="1" connectable="0" parent="4w60epp1YGAYbXjB0SkR-36">
          <mxGeometry x="-0.0196" y="1" relative="1" as="geometry">
            <mxPoint as="offset" />
          </mxGeometry>
        </mxCell>
        <mxCell id="4w60epp1YGAYbXjB0SkR-26" value="对比横向特征差异" style="rounded=1;whiteSpace=wrap;html=1;fontSize=12;glass=0;strokeWidth=1;shadow=0;fillColor=#ffe6cc;strokeColor=#d79b00;" vertex="1" parent="WIyWlLk6GJQsqaUBKTNV-1">
          <mxGeometry x="470" y="970" width="120" height="40" as="geometry" />
        </mxCell>
        <mxCell id="4w60epp1YGAYbXjB0SkR-29" value="发送log上报" style="rounded=1;whiteSpace=wrap;html=1;fontSize=12;glass=0;strokeWidth=1;shadow=0;" vertex="1" parent="WIyWlLk6GJQsqaUBKTNV-1">
          <mxGeometry x="670" y="870" width="120" height="40" as="geometry" />
        </mxCell>
        <mxCell id="4w60epp1YGAYbXjB0SkR-32" value="发送log上报" style="rounded=1;whiteSpace=wrap;html=1;fontSize=12;glass=0;strokeWidth=1;shadow=0;" vertex="1" parent="WIyWlLk6GJQsqaUBKTNV-1">
          <mxGeometry x="670" y="970" width="120" height="40" as="geometry" />
        </mxCell>
        <mxCell id="4w60epp1YGAYbXjB0SkR-35" value="将新车道组的右侧车道更新&lt;br&gt;至人行横道-车道关系中&lt;br&gt;OR&lt;br&gt;用新车道组的右侧车道和人行横道创建人行横道-车道关系" style="rounded=1;whiteSpace=wrap;html=1;fontSize=12;glass=0;strokeWidth=1;shadow=0;" vertex="1" parent="WIyWlLk6GJQsqaUBKTNV-1">
          <mxGeometry x="450" y="1106" width="160" height="100" as="geometry" />
        </mxCell>
        <mxCell id="4w60epp1YGAYbXjB0SkR-40" value="" style="rounded=1;whiteSpace=wrap;html=1;fontSize=12;glass=0;strokeWidth=1;shadow=0;align=left;fillColor=#fff2cc;strokeColor=#d6b656;" vertex="1" parent="WIyWlLk6GJQsqaUBKTNV-1">
          <mxGeometry x="70" y="1111" width="140" height="90" as="geometry" />
        </mxCell>
        <mxCell id="4w60epp1YGAYbXjB0SkR-41" value="④：&lt;br&gt;用新车道组的更新&lt;br&gt;人行横道-车道关系" style="text;html=1;strokeColor=none;fillColor=none;align=left;verticalAlign=top;whiteSpace=wrap;rounded=0;" vertex="1" parent="WIyWlLk6GJQsqaUBKTNV-1">
          <mxGeometry x="85" y="1118.5" width="110" height="72.5" as="geometry" />
        </mxCell>
        <mxCell id="4w60epp1YGAYbXjB0SkR-44" value="" style="endArrow=none;dashed=1;html=1;rounded=0;" edge="1" parent="WIyWlLk6GJQsqaUBKTNV-1">
          <mxGeometry width="50" height="50" relative="1" as="geometry">
            <mxPoint x="40" y="360" as="sourcePoint" />
            <mxPoint x="800" y="360" as="targetPoint" />
          </mxGeometry>
        </mxCell>
        <mxCell id="4w60epp1YGAYbXjB0SkR-45" value="" style="endArrow=none;dashed=1;html=1;rounded=0;" edge="1" parent="WIyWlLk6GJQsqaUBKTNV-1">
          <mxGeometry width="50" height="50" relative="1" as="geometry">
            <mxPoint x="40" y="840" as="sourcePoint" />
            <mxPoint x="800" y="840" as="targetPoint" />
          </mxGeometry>
        </mxCell>
        <mxCell id="4w60epp1YGAYbXjB0SkR-46" value="" style="endArrow=none;dashed=1;html=1;rounded=0;" edge="1" parent="WIyWlLk6GJQsqaUBKTNV-1">
          <mxGeometry width="50" height="50" relative="1" as="geometry">
            <mxPoint x="40" y="1040" as="sourcePoint" />
            <mxPoint x="800" y="1040" as="targetPoint" />
          </mxGeometry>
        </mxCell>
      </root>
    </mxGraphModel>
  </diagram>
</mxfile>
